<mxfile host="app.diagrams.net" modified="2020-11-27T18:39:25.405Z" agent="5.0 (Windows)" etag="yIwlCEpGUpsgTrfP3Q89" version="13.10.4" type="github">
  <diagram id="qUjiHCN2r_tTvD4dtzWM" name="Pagina-1">
    <mxGraphModel dx="950" dy="458" grid="1" gridSize="10" guides="1" tooltips="1" connect="1" arrows="1" fold="1" page="1" pageScale="1" pageWidth="827" pageHeight="1169" math="0" shadow="0">
      <root>
        <mxCell id="0" />
        <mxCell id="1" parent="0" />
        <mxCell id="wpx88P_JLsPQrywkGey--49" value="" style="shape=hexagon;perimeter=hexagonPerimeter2;whiteSpace=wrap;html=1;fixedSize=1;" vertex="1" parent="1">
          <mxGeometry x="190" y="87" width="120" height="80" as="geometry" />
        </mxCell>
        <mxCell id="wpx88P_JLsPQrywkGey--5" value="&lt;div&gt;&lt;font style=&quot;font-size: 14px&quot; face=&quot;Times New Roman&quot;&gt;Direttore&lt;/font&gt;&lt;/div&gt;&lt;div&gt;&lt;font style=&quot;font-size: 14px&quot; face=&quot;Times New Roman&quot;&gt;Generale&lt;br&gt;&lt;/font&gt;&lt;/div&gt;" style="shape=umlActor;verticalLabelPosition=bottom;verticalAlign=top;html=1;outlineConnect=0;" vertex="1" parent="1">
          <mxGeometry x="20" y="60" width="30" height="60" as="geometry" />
        </mxCell>
        <mxCell id="wpx88P_JLsPQrywkGey--6" value="&lt;div&gt;&lt;font style=&quot;font-size: 14px&quot; face=&quot;Times New Roman&quot;&gt;Responsabile&lt;/font&gt;&lt;/div&gt;&lt;div&gt;&lt;font style=&quot;font-size: 14px&quot; face=&quot;Times New Roman&quot;&gt;Vendite&lt;br&gt;&lt;/font&gt;&lt;/div&gt;" style="shape=umlActor;verticalLabelPosition=bottom;verticalAlign=top;html=1;outlineConnect=0;" vertex="1" parent="1">
          <mxGeometry x="23" y="174.25" width="30" height="60" as="geometry" />
        </mxCell>
        <mxCell id="wpx88P_JLsPQrywkGey--7" value="&lt;font style=&quot;font-size: 14px&quot; face=&quot;Times New Roman&quot;&gt;Magazziniere&lt;/font&gt;" style="shape=umlActor;verticalLabelPosition=bottom;verticalAlign=top;html=1;outlineConnect=0;" vertex="1" parent="1">
          <mxGeometry x="23" y="284.25" width="30" height="60" as="geometry" />
        </mxCell>
        <mxCell id="wpx88P_JLsPQrywkGey--9" value="&lt;font style=&quot;font-size: 14px&quot; face=&quot;Times New Roman&quot;&gt;Commesso&lt;/font&gt;" style="shape=umlActor;verticalLabelPosition=bottom;verticalAlign=top;html=1;outlineConnect=0;" vertex="1" parent="1">
          <mxGeometry x="23" y="380" width="30" height="60" as="geometry" />
        </mxCell>
        <mxCell id="wpx88P_JLsPQrywkGey--18" value="" style="rounded=0;whiteSpace=wrap;html=1;" vertex="1" parent="1">
          <mxGeometry x="170" y="120" width="430" height="283" as="geometry" />
        </mxCell>
        <mxCell id="wpx88P_JLsPQrywkGey--19" value="&lt;div&gt;&lt;br&gt;&lt;/div&gt;&lt;div&gt;&lt;br&gt;&lt;/div&gt;&lt;div&gt;&lt;br&gt;&lt;/div&gt;&lt;div&gt;&lt;br&gt;&lt;/div&gt;&lt;div&gt;&lt;br&gt;&lt;/div&gt;&lt;div&gt;&lt;br&gt;&lt;/div&gt;" style="ellipse;whiteSpace=wrap;html=1;" vertex="1" parent="1">
          <mxGeometry x="215" y="150" width="80" height="60" as="geometry" />
        </mxCell>
        <mxCell id="wpx88P_JLsPQrywkGey--21" value="&lt;div&gt;&lt;font style=&quot;font-size: 14px&quot; face=&quot;Times New Roman&quot;&gt;&lt;b&gt;Modifica Dati&lt;/b&gt;&lt;/font&gt;&lt;/div&gt;&lt;div&gt;&lt;font style=&quot;font-size: 12px&quot;&gt;&lt;font style=&quot;font-size: 14px&quot; face=&quot;Times New Roman&quot;&gt;&lt;b&gt;Personali&lt;/b&gt;&lt;/font&gt;&lt;br&gt;&lt;/font&gt;&lt;/div&gt;" style="text;html=1;strokeColor=none;fillColor=none;align=center;verticalAlign=middle;whiteSpace=wrap;rounded=0;" vertex="1" parent="1">
          <mxGeometry x="190" y="216.75" width="130" height="20" as="geometry" />
        </mxCell>
        <mxCell id="wpx88P_JLsPQrywkGey--25" value="&lt;div&gt;&lt;br&gt;&lt;/div&gt;&lt;div&gt;&lt;br&gt;&lt;/div&gt;&lt;div&gt;&lt;br&gt;&lt;/div&gt;&lt;div&gt;&lt;br&gt;&lt;/div&gt;&lt;div&gt;&lt;br&gt;&lt;/div&gt;&lt;div&gt;&lt;br&gt;&lt;/div&gt;" style="ellipse;whiteSpace=wrap;html=1;" vertex="1" parent="1">
          <mxGeometry x="215" y="300" width="80" height="60" as="geometry" />
        </mxCell>
        <mxCell id="wpx88P_JLsPQrywkGey--26" value="&lt;div&gt;&lt;font style=&quot;font-size: 14px&quot; face=&quot;Times New Roman&quot;&gt;&lt;b&gt;Visualizzazione Dati&lt;/b&gt;&lt;/font&gt;&lt;/div&gt;&lt;div&gt;&lt;font style=&quot;font-size: 12px&quot; face=&quot;Times New Roman&quot;&gt;&lt;font style=&quot;font-size: 14px&quot;&gt;&lt;b&gt;Personali&lt;/b&gt;&lt;/font&gt;&lt;br&gt;&lt;/font&gt;&lt;/div&gt;" style="text;html=1;strokeColor=none;fillColor=none;align=center;verticalAlign=middle;whiteSpace=wrap;rounded=0;" vertex="1" parent="1">
          <mxGeometry x="190" y="367" width="145" height="20" as="geometry" />
        </mxCell>
        <mxCell id="wpx88P_JLsPQrywkGey--44" value="" style="shape=partialRectangle;whiteSpace=wrap;html=1;bottom=1;right=1;left=1;top=0;fillColor=none;routingCenterX=-0.5;rotation=-90;" vertex="1" parent="1">
          <mxGeometry x="-50" y="230" width="320" height="60" as="geometry" />
        </mxCell>
        <mxCell id="wpx88P_JLsPQrywkGey--45" value="" style="endArrow=none;html=1;" edge="1" parent="1">
          <mxGeometry width="50" height="50" relative="1" as="geometry">
            <mxPoint x="80" y="215" as="sourcePoint" />
            <mxPoint x="140" y="215" as="targetPoint" />
          </mxGeometry>
        </mxCell>
        <mxCell id="wpx88P_JLsPQrywkGey--46" value="" style="endArrow=none;html=1;" edge="1" parent="1">
          <mxGeometry width="50" height="50" relative="1" as="geometry">
            <mxPoint x="80" y="321" as="sourcePoint" />
            <mxPoint x="140" y="321.32" as="targetPoint" />
          </mxGeometry>
        </mxCell>
        <mxCell id="wpx88P_JLsPQrywkGey--50" value="&lt;div align=&quot;center&quot;&gt;&lt;font face=&quot;Times New Roman&quot;&gt;&lt;b&gt;Gestione&lt;/b&gt;&lt;/font&gt;&lt;/div&gt;&lt;div align=&quot;center&quot;&gt;&lt;font face=&quot;Times New Roman&quot;&gt;&lt;b&gt;Utenti&lt;/b&gt;&lt;br&gt;&lt;/font&gt;&lt;/div&gt;" style="text;html=1;strokeColor=none;fillColor=none;align=center;verticalAlign=middle;whiteSpace=wrap;rounded=0;" vertex="1" parent="1">
          <mxGeometry x="230" y="93" width="40" height="20" as="geometry" />
        </mxCell>
        <mxCell id="wpx88P_JLsPQrywkGey--51" value="" style="shape=partialRectangle;whiteSpace=wrap;html=1;bottom=1;right=1;left=1;top=0;fillColor=none;routingCenterX=-0.5;rotation=90;" vertex="1" parent="1">
          <mxGeometry x="125" y="246" width="160" height="20" as="geometry" />
        </mxCell>
        <mxCell id="wpx88P_JLsPQrywkGey--53" value="" style="endArrow=none;html=1;entryX=0.5;entryY=1;entryDx=0;entryDy=0;exitX=0.512;exitY=0.995;exitDx=0;exitDy=0;exitPerimeter=0;" edge="1" parent="1" source="wpx88P_JLsPQrywkGey--44" target="wpx88P_JLsPQrywkGey--51">
          <mxGeometry width="50" height="50" relative="1" as="geometry">
            <mxPoint x="220" y="310" as="sourcePoint" />
            <mxPoint x="270" y="260" as="targetPoint" />
          </mxGeometry>
        </mxCell>
      </root>
    </mxGraphModel>
  </diagram>
</mxfile>
